HIERARCHY
ROOT Hips
{
	OFFSET -0.179506 -22.333345 2.821913
	CHANNELS 6 Xposition Yposition Zposition Zrotation Yrotation Xrotation 
	JOINT LeftUpLeg
	{
		OFFSET 6.951974 -9.140623 -0.681533
		CHANNELS 3 Zrotation Yrotation Xrotation
		JOINT LeftLeg
		{
			OFFSET 3.427654 -37.519855 -0.449580
			CHANNELS 3 Zrotation Yrotation Xrotation
			JOINT LeftFoot
			{
				OFFSET -1.359570 -39.796059 -4.369333
				CHANNELS 3 Zrotation Yrotation Xrotation
				JOINT LeftToe
				{
					OFFSET 2.635814 -5.579078 11.928840
					CHANNELS 3 Zrotation Yrotation Xrotation
					End Site
					{
						OFFSET 0.000000 0.000000 0.000000
					}
				}
			}
		}
	}
	JOINT RightUpLeg
	{
		OFFSET -6.767048 -9.052170 -0.431982
		CHANNELS 3 Zrotation Yrotation Xrotation
		JOINT RightLeg
		{
			OFFSET -3.829005 -38.256897 -0.885003
			CHANNELS 3 Zrotation Yrotation Xrotation
			JOINT RightFoot
			{
				OFFSET 1.577377 -39.841461 -4.231180
				CHANNELS 3 Zrotation Yrotation Xrotation
				JOINT RightToe
				{
					OFFSET -2.537174 -4.814398 12.334795
					CHANNELS 3 Zrotation Yrotation Xrotation
					End Site
					{
						OFFSET 0.000000 0.000000 0.000000
					}
				}
			}
		}
	}
	JOINT Spine
	{
		OFFSET -0.253288 10.896323 -2.669631
		CHANNELS 3 Zrotation Yrotation Xrotation
		JOINT Spine1
		{
			OFFSET 0.548704 13.518043 0.109247
			CHANNELS 3 Zrotation Yrotation Xrotation
			JOINT Spine2
			{
				OFFSET 0.145701 5.292222 2.542457
				CHANNELS 3 Zrotation Yrotation Xrotation
				JOINT Neck
				{
					OFFSET -0.277840 21.387037 -4.285703
					CHANNELS 3 Zrotation Yrotation Xrotation
					JOINT Head
					{
						OFFSET 0.515184 6.496960 5.134897
						CHANNELS 3 Zrotation Yrotation Xrotation
						End Site
						{
							OFFSET 0.000000 0.000000 0.000000
						}
					}
				}
				JOINT LeftShoulder
				{
					OFFSET 7.884473 12.174932 -3.408961
					CHANNELS 3 Zrotation Yrotation Xrotation
					JOINT LeftArm
					{
						OFFSET 9.097692 3.046888 -0.886815
						CHANNELS 3 Zrotation Yrotation Xrotation
						JOINT LeftForeArm
						{
							OFFSET 25.961220 -1.277207 -2.745643
							CHANNELS 3 Zrotation Yrotation Xrotation
							JOINT LeftHand
							{
								OFFSET 24.923361 0.898606 -0.117091
								CHANNELS 3 Zrotation Yrotation Xrotation
								End Site
								{
									OFFSET 0.000000 0.000000 0.000000
								}
							}
						}
					}
				}
				JOINT RightShoulder
				{
					OFFSET -8.175920 11.883285 -3.861528
					CHANNELS 3 Zrotation Yrotation Xrotation
					JOINT RightArm
					{
						OFFSET -9.601238 3.255117 -0.914307
						CHANNELS 3 Zrotation Yrotation Xrotation
						JOINT RightForeArm
						{
							OFFSET -25.374195 -1.332924 -2.140099
							CHANNELS 3 Zrotation Yrotation Xrotation
							JOINT RightHand
							{
								OFFSET -25.529810 0.777228 -0.555919
								CHANNELS 3 Zrotation Yrotation Xrotation
								End Site
								{
									OFFSET 0.000000 0.000000 0.000000
								}
							}
						}
					}
				}
			}
		}
	}
}
MOTION
Frames: 6
Frame Time: 0.033333
-44.438374 -283.164703 91.291313 177.344212 0.580750 86.364047 -0.707168 2.759937 3.906805 -3.256770 -2.554376 7.984525 4.341978 13.003687 -16.564109 nan nan nan -0.973298 -3.373862 2.551288 2.764274 -1.622666 6.417931 -0.412530 -5.915905 -13.887816 nan nan nan -0.284783 2.207571 7.300224 1.373367 -2.829803 7.451839 0.565872 -0.362778 -4.763105 0.543651 1.707420 -0.223098 2.570890 1.907142 4.500493 -29.280285 -1.811872 1.985526 -53.954618 -4.874290 12.900926 3.287289 -24.276754 6.862307 -7.801064 -12.122767 2.488554 28.739529 7.650310 4.339025 53.832857 3.629800 14.705953 -7.373137 22.289793 -0.683286 8.603369 10.862833 1.173864 
-44.489185 -283.126831 91.259804 177.291402 0.616595 86.341077 -0.726546 2.631733 3.789213 -3.302508 -2.503342 8.305990 4.170005 13.138829 -16.617414 nan nan nan -0.902314 -3.199776 2.878644 2.651268 -1.359600 5.893628 -0.256513 -6.133660 -13.953707 nan nan nan -0.205804 2.228087 7.394292 1.312099 -2.862708 7.450053 0.588904 -0.402426 -4.738441 0.559491 1.787779 -0.289488 2.725605 2.168614 4.172870 -29.269567 -2.197472 2.299857 -53.955093 -4.572738 12.936831 3.508868 -24.576105 6.806937 -7.561677 -12.161962 2.244054 28.635540 7.972989 4.472125 53.904634 3.579242 14.725869 -7.395683 22.498149 -0.682152 8.364998 10.868697 0.910759 
-44.557686 -283.113098 91.242882 177.329925 0.670518 86.415818 -0.700121 2.453372 3.552559 -3.386236 -2.360731 8.669195 4.107714 13.210641 -16.802225 nan nan nan -0.934565 -2.994382 3.027869 2.827941 -1.036377 5.573012 0.185744 -6.387829 -13.855898 nan nan nan -0.106778 2.268174 7.336056 1.276527 -2.831174 7.416070 0.553403 -0.382377 -4.683002 0.600699 1.711136 -0.437411 2.722468 2.118448 4.222054 -29.231320 -2.255160 2.367994 -53.897625 -4.660733 12.988515 3.236955 -24.567032 7.125741 -7.422698 -12.338523 2.140409 28.576411 7.996135 4.497591 53.950413 3.633852 14.822801 -7.344569 22.596491 -0.520434 8.143803 10.909313 0.820967 
-44.607002 -283.041016 91.221825 177.378741 0.791808 86.446117 -0.562936 2.203766 3.482672 -3.497129 -2.219381 8.883868 4.113027 13.198906 -16.937902 nan nan nan -1.085201 -2.698813 3.349945 3.455237 -0.498582 5.050700 1.299860 -6.654850 -12.883143 nan nan nan 0.029997 2.304698 7.263681 1.246204 -2.752440 7.344876 0.544962 -0.348375 -4.492360 0.668371 1.642454 -0.678907 2.660016 1.952441 4.500786 -29.218519 -2.157991 2.521971 -53.873488 -5.031719 12.939339 2.963442 -24.462136 7.781214 -7.537785 -12.550333 2.062159 28.497363 7.790101 4.535308 54.043268 3.776669 14.920406 -7.422565 22.735344 -0.222207 7.942704 10.833075 0.566738 
-44.678398 -282.907593 91.196991 177.467130 0.838618 86.319778 -0.641727 2.164486 3.462347 -3.339332 -2.087962 9.404716 4.233245 13.030612 -17.280431 nan nan nan -1.180623 -2.683071 3.803565 3.553731 -0.500233 4.725277 1.452012 -6.703157 -12.695632 nan nan nan 0.016715 2.493834 7.041283 1.438852 -2.891720 8.041451 0.545994 -0.353066 -4.568106 0.705256 2.242982 -0.595229 2.598736 1.593514 3.750476 -29.379387 -2.136859 2.294407 -53.966930 -5.155108 12.613619 3.047193 -24.462308 7.660814 -8.449923 -12.488043 3.268037 28.980724 7.183139 4.196852 54.549135 3.364370 13.777510 -9.974585 23.987971 -1.580049 8.244888 10.825340 2.433054 
-44.633797 -282.953003 91.191811 177.939570 1.503608 88.034049 -1.028781 1.081274 0.739217 -2.310564 -2.769808 11.097677 4.979585 15.159809 -18.850800 nan nan nan 0.088554 -3.425446 3.536400 3.015901 1.130727 1.736092 0.414432 -8.115900 -11.751225 nan nan nan 0.444924 2.966620 3.585921 1.993596 -3.956645 10.916109 0.437048 -0.185524 -6.373567 0.040665 2.163792 1.269051 2.865253 1.686243 2.646256 -29.783475 -2.459749 1.743303 -54.542624 -4.650729 13.941171 4.352208 -22.959493 4.318987 -9.953133 -12.924529 5.577075 28.740073 7.869169 4.230245 54.784564 2.123250 13.615173 -10.692393 24.111774 -3.341960 8.599921 11.607004 4.091772 
